<?xml version="1.0" encoding="UTF-8" standalone="no"?>
<svg
   id="Layer_4"
   data-name="Layer 4"
   viewBox="0 0 260.77177 223.64971"
   version="1.1"
   width="260.77176"
   height="223.64972"
   xmlns="http://www.w3.org/2000/svg"
   xmlns:svg="http://www.w3.org/2000/svg"
   xmlns:rdf="http://www.w3.org/1999/02/22-rdf-syntax-ns#"
   xmlns:cc="http://creativecommons.org/ns#"
   xmlns:dc="http://purl.org/dc/elements/1.1/">
  <defs
     id="defs4">
    <style
       id="style2">.cls-1{fill:#231f20;}</style>
  </defs>
  <title
     id="title6">Rice_Owl_Flat_Black</title>
  <path
     class="cls-1"
     d="m 224.40035,190.0846 -0.34,-1.09 c -2.87,-9 -4.55,-19.12 -6.5,-30.79 -2.66,-15.95 -5.68,-34 -12.67,-54.58 -5.19,-15.25 -15.14,-28.37 -27.63,-36.65 a 2,2 0 0 1 -0.47,-2.84 39.79,39.79 0 0 0 -58.86,-53.19 1.93,1.93 0 0 1 -2.68,0 39.78,39.78 0 1 0 -51.999997,60.1 2.54,2.54 0 0 1 0.93,2.4 86.89,86.89 0 0 0 38.529997,87.05 v 0 a 104,104 0 0 0 14.22,12.24 2.05,2.05 0 0 1 0.7,2.44 98.94,98.94 0 0 1 -7.63,14.92 8.86,8.86 0 0 1 -7.58,4.13 h -3.849997 a 10.11,10.11 0 0 0 -9.45,6.44 l -1.69,4.36 a 3.88,3.88 0 0 0 0.4,3.63 3.93,3.93 0 0 0 3.25,1.73 h 48.749997 a 8,8 0 0 0 2.18,-0.51 14.81,14.81 0 0 0 1.6,-0.64 3.67,3.67 0 0 1 1.56,-0.36 3.62,3.62 0 0 1 1.48,0.32 10.21,10.21 0 0 0 1.15,0.46 12.67,12.67 0 0 0 4.26,0.73 h 1.87 a 5.33,5.33 0 0 0 3.76,-1.49 5.19,5.19 0 0 0 1.4,-5.07 l -0.89,-3.41 a 8.3,8.3 0 0 0 -4.07,-5.17 0.81,0.81 0 0 1 -0.3,-1.17 c 1.06,-1.61 2.08,-3.28 3.07,-5 v 0 a 1.6,1.6 0 0 1 2.07,-0.65 164.07,164.07 0 0 0 25.49,9.57 1.92,1.92 0 0 0 2.09,-0.75 v 0 c 1.82,-2.56 3.59,-5.3 5.24,-8.15 0.83,-1.42 1.6,-2.87 2.34,-4.32 a 1.71,1.71 0 0 1 2.22,-0.8 104.47,104.47 0 0 0 25.59,7.5 l 1.14,0.18 a 1.22,1.22 0 0 0 1.32,-1.57 z m -46,-136.21 a 36.08,36.08 0 0 1 -14.94,16.83 1.71,1.71 0 0 1 -2.53,-1.66 27,27 0 0 0 -2,-12.87 7.38,7.38 0 0 1 0.58,-6.56 19.26,19.26 0 0 0 2.69,-8.21 2.14,2.14 0 0 1 2.58,-1.87 23,23 0 0 1 12.45,6.85 7,7 0 0 1 1.17,7.49 z m -7.37,-36.81 v 0 a 5.14,5.14 0 0 1 3.93,2.2 35.71,35.71 0 0 1 6.37,20.39 c 0,0.51 0,1 0,1.54 a 1.6,1.6 0 0 1 -2.69,1.09 28.05,28.05 0 0 0 -14.19,-6.75 4.63,4.63 0 0 1 -3.52,-2.88 19.6,19.6 0 0 0 -4.2,-6.51 2.89,2.89 0 0 1 0.29,-4.3 20.54,20.54 0 0 1 14.01,-4.78 z m -54.47,27.26 a 11.57,11.57 0 0 1 11.57,11.56 11.46,11.46 0 0 1 -1.2,5.06 l -9.12,19.18 a 1.4,1.4 0 0 1 -2.53,0 l -9.11,-19.16 v 0 a 11.32,11.32 0 0 1 -1.18,-5.09 11.57,11.57 0 0 1 11.57,-11.55 z m -26.389997,10.78 a 15.45,15.45 0 1 1 15.449997,-15.45 15.47,15.47 0 0 1 -15.449997,15.45 z m 37.339997,-15.45 a 15.45,15.45 0 1 1 15.42,15.45 15.47,15.47 0 0 1 -15.42,-15.45 z m 19.42,-34.71 a 19,19 0 0 1 8.39,0.15 35.65,35.65 0 0 1 11.32,5.59 1.58,1.58 0 0 1 -0.66,2.82 25.78,25.78 0 0 0 -12,5.78 7.57,7.57 0 0 1 -6.6,1.54 19.65,19.65 0 0 0 -4.5,-0.53 19.22,19.22 0 0 0 -11.76,4 1.22,1.22 0 0 1 -1.89,-1.34 c 3.15,-9.51 9.53,-16.47 17.7,-18.01 z m -46.82,1 a 35.84,35.84 0 0 1 14.94,10.46 1.94,1.94 0 0 0 2.94,0 35.9,35.9 0 0 1 14.94,-10.46 1.004353,1.004353 0 0 1 1.07,1.7 31.41,31.41 0 0 0 -5.91,8.09 46,46 0 0 0 -4.6,23.91 1.58,1.58 0 0 1 -2.08,1.6 15.5,15.5 0 0 0 -9.77,0 1.58,1.58 0 0 1 -2.08,-1.6 46,46 0 0 0 -4.61,-23.91 31.38,31.38 0 0 0 -5.899997,-8.09 1.0124228,1.0124228 0 0 1 1.099997,-1.7 z m -33.669997,4.77 a 35.65,35.65 0 0 1 11.32,-5.59 19,19 0 0 1 8.4,-0.15 c 8.21,1.51 14.579997,8.47 17.659997,18 a 1.22,1.22 0 0 1 -1.89,1.36 19.22,19.22 0 0 0 -11.759997,-4 19.59,19.59 0 0 0 -4.5,0.53 7.57,7.57 0 0 1 -6.6,-1.54 25.82,25.82 0 0 0 -12,-5.78 1.58,1.58 0 0 1 -0.63,-2.83 z m -14.63,30.48 c 0,-0.51 0,-1 0,-1.54 a 35.7,35.7 0 0 1 6.36,-20.39 5.18,5.18 0 0 1 3.93,-2.2 v 0 a 20.5,20.5 0 0 1 14,4.78 2.89,2.89 0 0 1 0.3,4.3 19.29,19.29 0 0 0 -4.2,6.51 4.65,4.65 0 0 1 -3.47,2.88 28.09,28.09 0 0 0 -14.19,6.75 1.6,1.6 0 0 1 -2.73,-1.09 z m 2.91,12.68 a 7,7 0 0 1 1.21,-7.49 23,23 0 0 1 12.37,-6.84 2.17,2.17 0 0 1 1.52,0.23 v 0 a 2.13,2.13 0 0 1 1.11,1.66 19.08,19.08 0 0 0 2.68,8.17 7.44,7.44 0 0 1 0.59,6.57 27.06,27.06 0 0 0 -2,12.87 1.72,1.72 0 0 1 -2.57,1.67 36.15,36.15 0 0 1 -14.91,-16.84 z m 30.09,85.21 c -0.57,-0.72 -1.13,-1.45 -1.68,-2.2 a 82.35,82.35 0 0 1 -16.27,-49.39 80.81,80.81 0 0 1 0.72,-10.79 1.75,1.75 0 0 1 2.52,-1.35 h 0.06 a 6.28,6.28 0 0 1 3.51,6 c -0.13,2.15 -0.21,4.35 -0.21,6.11 a 105.25,105.25 0 0 0 12.83,50.6 0.89872131,0.89872131 0 0 1 -1.48,1.02 z m 30.829997,61.58 -1,2.55 -0.71,1.82 v 0 a 2.26,2.26 0 0 1 -2.09,1.43 h -9.14 a 0.47,0.47 0 0 1 -0.44,-0.64 l 1.1,-2.84 a 1,1 0 0 0 -0.55,-1.26 2.89,2.89 0 0 0 -3.739997,1.64 l -0.66,1.68 v 0 a 2.12,2.12 0 0 1 -2,1.4 h -4.26 a 0.8,0.8 0 0 1 -0.75,-1.1 l 1.27,-3.26 a 6.24,6.24 0 0 1 5.85,-4 h 3.849997 a 12.71,12.71 0 0 0 10.86,-5.94 103.15,103.15 0 0 0 7.8,-15.23 1,1 0 0 1 1.39,-0.44 c 1.87,1.18 3.8,2.31 5.76,3.38 a 2.51,2.51 0 0 1 1,3.33 99.17,99.17 0 0 1 -5.86,9.86 6,6 0 0 1 -2.53,2.1 10.15,10.15 0 0 0 -5.15,5.52 z m 25.29,-22.08 a 1.7,1.7 0 0 1 0.68,2.22 99.58,99.58 0 0 1 -5.09,9.29 8.89,8.89 0 0 1 -7.59,4.13 0.92,0.92 0 0 1 -0.77,-1.41 104.8,104.8 0 0 0 8,-15.35 1.29,1.29 0 0 1 1.88,-0.59 q 1.46,0.87 2.89,1.71 z m -2.48,-6.91 c 0.38,-1.08 0.74,-2.16 1.08,-3.25 a 0.8,0.8 0 0 1 1.29,-0.37 q 2,1.68 4.11,3.28 a 0.91,0.91 0 0 1 0.3,1.05 c -0.33,0.9 -0.67,1.79 -1,2.68 a 0.73,0.73 0 0 1 -1,0.35 q -2.22,-1.28 -4.33,-2.63 a 1,1 0 0 1 -0.44,-1.11 z m 18,10 q -1.37,2.77 -2.92,5.48 c -1.59,2.73 -3.29,5.38 -5.06,7.87 l -1.6,2.32 a 0.47,0.47 0 0 0 0.38,0.73 h 2.86 a 4.48,4.48 0 0 1 4.33,3.33 l 0.89,3.4 a 1.32,1.32 0 0 1 -0.24,1.17 1.34,1.34 0 0 1 -1.08,0.53 h -1.94 a 8.8,8.8 0 0 1 -3,-0.5 9.5,9.5 0 0 1 -2.27,-1.15 2.63,2.63 0 0 0 -0.92,-0.41 2.84,2.84 0 0 0 -2.17,0.32 l -0.75,0.44 a 9.21,9.21 0 0 1 -3.46,1.16 l -0.45,0.06 a 12.22,12.22 0 0 1 -1.35,0.08 h -7.77 a 1,1 0 0 1 -0.92,-1.35 l 0.89,-2.27 a 0.88,0.88 0 0 0 -0.5,-1.13 3,3 0 0 0 -3.87,1.69 l -0.45,1.19 a 2.83,2.83 0 0 1 -2.68,1.85 h -4 a 0.63,0.63 0 0 1 -0.52,-0.28 0.64,0.64 0 0 1 -0.08,-0.6 l 1.63,-4.19 a 5.23,5.23 0 0 1 4.88,-3.33 h 4.62 a 12.71,12.71 0 0 0 10.86,-5.94 104.54,104.54 0 0 0 8.56,-17.13 0.79,0.79 0 0 1 1.19,-0.37 q 2.87,1.94 5.88,3.71 a 2.54,2.54 0 0 1 1.02,3.33 z m 1.8,-6.16 a 105.55,105.55 0 0 1 -9.3,-6 103.89,103.89 0 0 1 -8.73,-7.15 101.51,101.51 0 0 1 -18.47,-22.42 1,1 0 0 0 -1.32,-0.33 2.86,2.86 0 0 0 -1,4 105.54,105.54 0 0 0 13.39,17 9.22,9.22 0 0 1 2.06,9.48 c -0.77,2.21 -1.62,4.38 -2.55,6.53 a 0.88,0.88 0 0 1 -1.22,0.43 100.78,100.78 0 0 1 -53.829997,-89.55 c 0,-1.69 0.09,-3.87 0.21,-6 a 2.83,2.83 0 0 1 3.3,-2.62 40.27,40.27 0 0 0 6.88,0.59 h 14.259997 a 1.09,1.09 0 0 0 1.1,-1.06 2.76,2.76 0 0 0 -2.76,-2.79 H 87.670353 a 35.56,35.56 0 0 1 -5.4,-0.41 7.35,7.35 0 0 1 -6.22,-6.4 22.88,22.88 0 0 1 1.45,-10.53 2.66,2.66 0 0 1 3.74,-1.44 19.3,19.3 0 0 0 17.78,0 1.5,1.5 0 0 1 1.409997,0 v 0 a 1.53,1.53 0 0 1 0.76,1.12 14.87,14.87 0 0 0 1.43,4.7 l 9.72,20.28 a 4.68,4.68 0 0 0 8.45,0 l 9.63,-20.25 a 15.4,15.4 0 0 0 1.43,-4.7 1.57,1.57 0 0 1 0.53,-1 1.5,1.5 0 0 1 1.64,-0.17 19.3,19.3 0 0 0 17.82,0 2.68,2.68 0 0 1 3.75,1.44 23,23 0 0 1 1.47,10.33 7.43,7.43 0 0 1 -6.25,6.6 35.53,35.53 0 0 1 -5.39,0.41 h -12.6 a 2.75,2.75 0 0 0 -2.76,2.79 1.08,1.08 0 0 0 1.1,1.06 h 0.61 a 1.61,1.61 0 0 1 1.6,1.72 c -0.14,2.09 -0.22,4.2 -0.22,6.34 a 105.26,105.26 0 0 0 25.52,68.71 c 0.33,0.39 0.66,0.76 1,1.14 a 11.11,11.11 0 0 1 2.3,10.89 q -1.16,3.5 -2.55,6.89 a 0.82,0.82 0 0 1 -1.18,0.38 z m 30.84,10.49 c -0.22,0.39 -0.43,0.77 -0.66,1.15 -1.2,2.07 -2.47,4.09 -3.77,6 a 1.22,1.22 0 0 1 -1.34,0.48 162.21,162.21 0 0 1 -23.21,-8.95 0.77,0.77 0 0 1 -0.34,-1 106.27,106.27 0 0 0 6.22,-15.31 2.38,2.38 0 0 1 3.81,-1.09 106.44,106.44 0 0 0 17.44,12.2 4.8,4.8 0 0 1 1.84,6.53 z m 29.38,0.93 a 101.49,101.49 0 0 1 -81.45,-99.45 c 0,-1.78 0.06,-3.55 0.16,-5.31 a 2.93,2.93 0 0 1 2.92,-2.75 h 5 a 40.38,40.38 0 0 0 25.13,-8.69 4.59,4.59 0 0 1 5.43,-0.19 c 11.53,7.83 20.72,20.08 25.56,34.31 a 274.18,274.18 0 0 1 9.95,39.09 0.64,0.64 0 0 1 -0.92,0.69 64.43,64.43 0 0 1 -20.11,-15.57 63.65,63.65 0 0 1 -13.38,-25.57 2.65,2.65 0 0 0 -3.09,-1.91 v 0 a 1.27,1.27 0 0 0 -1,1.54 67.37,67.37 0 0 0 14.53,28.46 68.11,68.11 0 0 0 21.18,16.42 8.46,8.46 0 0 1 4.57,6.17 c 0.27,1.57 0.53,3.13 0.78,4.66 0.39,2.34 0.77,4.61 1.15,6.83 a 0.64,0.64 0 0 1 -0.82,0.72 82.68,82.68 0 0 1 -53.56,-51.53 2.63,2.63 0 0 0 -3.26,-1.62 1.28,1.28 0 0 0 -0.82,1.62 86.45,86.45 0 0 0 54.61,54.6 8.65,8.65 0 0 1 5.75,6.46 c 0.72,3.54 1.49,7 2.39,10.23 a 0.63,0.63 0 0 1 -0.71,0.8 z"
     id="path8" />
  <path
     class="cls-1"
     d="m 91.290353,47.4346 a 10.16,10.16 0 0 1 -6.86,-16.29 0.54,0.54 0 0 0 -0.74,-0.75 11.3,11.3 0 1 0 15.74,15.74 0.54,0.54 0 0 0 -0.76,-0.74 10.17,10.17 0 0 1 -7.38,2.04 z"
     id="path10" />
  <path
     class="cls-1"
     d="m 144.08035,47.4346 a 10.16,10.16 0 0 1 -6.86,-16.29 0.54,0.54 0 0 0 -0.74,-0.75 11.3,11.3 0 1 0 15.74,15.74 0.54,0.54 0 0 0 -0.76,-0.74 10.17,10.17 0 0 1 -7.38,2.04 z"
     id="path12" />
  <path
     fill="#3f3f3f"
     d="m 143.84923,64.210694 c 11.38804,0 20.62824,-8.224055 20.62824,-18.360007 0,-5.070992 1.28543,-10.141698 -2.44813,-13.464024 -3.73356,-3.322326 -12.48609,-4.895983 -18.1804,-4.895983 -6.77253,0 -14.77904,0.412093 -18.53961,4.895983 -2.56712,3.061102 -2.08863,9.34941 -2.08863,13.464024 2.8e-4,10.135952 9.23273,18.360007 20.62853,18.360007 z"
     id="path246"
     style="fill:#231f20;fill-opacity:0.95;stroke-width:2.87373" />
  <path
     fill="#3f3f3f"
     d="m 87.545286,64.210694 c 11.388033,0 20.628234,-8.224055 20.628234,-18.360007 0,-5.070992 1.28543,-10.141698 -2.44813,-13.464024 -3.73355,-3.322326 -12.486093,-4.895983 -18.180397,-4.895983 -6.772526,0 -14.779049,0.412093 -18.539618,4.895983 -2.567101,3.061102 -2.08863,9.34941 -2.08863,13.464024 2.93e-4,10.135952 9.232738,18.360007 20.628541,18.360007 z"
     id="path248"
     style="fill:#231f20;fill-opacity:0.95;stroke-width:2.87373" />
  <path
     fill="none"
     stroke="#000000"
     stroke-linecap="round"
     stroke-linejoin="round"
     stroke-miterlimit="10"
     stroke-width="5.49532"
     d="m 67.843523,40.933152 c 0,0 -2.738667,24.572736 19.716123,22.755672 7.528324,-0.609231 22.462264,-1.869939 22.607674,-23.974711 0.0132,-2.00558 -0.0224,-4.594816 -2.33002,-7.557348 -3.05967,-3.92811 -10.263829,-5.66442 -28.578143,-4.086453 2.82e-4,2.88e-4 -9.903474,-0.284499 -11.415634,12.86284 z"
     id="path258"
     style="stroke:#231f20;stroke-width:3.66059;stroke-dasharray:none;stroke-opacity:1" />
  <polyline
     fill="none"
     stroke="#000000"
     stroke-linecap="round"
     stroke-linejoin="round"
     stroke-miterlimit="10"
     stroke-width="2"
     points="18.9534,29.9307 18.5203,26.5594 22.3532,26.0317"
     id="polyline260"
     transform="matrix(2.8737353,0,0,2.8737353,13.579934,-46.611745)"
     style="stroke:#231f20;stroke-width:1.27381;stroke-dasharray:none;stroke-opacity:1" />
  <path
     fill="none"
     stroke="#000000"
     stroke-linecap="round"
     stroke-linejoin="round"
     stroke-miterlimit="10"
     stroke-width="5.49532"
     d="m 165.14418,40.933152 c 0,0 2.73867,24.572736 -19.71612,22.755672 -7.52832,-0.609231 -22.46227,-1.869939 -22.60768,-23.974711 -0.0132,-2.00558 0.0224,-4.594816 2.33002,-7.557348 3.05967,-3.92811 10.26384,-5.66442 28.57815,-4.086453 0,2.88e-4 9.90375,-0.284499 11.41563,12.86284 z"
     id="path262"
     style="stroke:#231f20;stroke-width:3.66059;stroke-dasharray:none;stroke-opacity:1" />
  <path
     fill="none"
     stroke="#000000"
     stroke-linecap="round"
     stroke-linejoin="round"
     stroke-miterlimit="10"
     stroke-width="5.49532"
     d="m 104.11638,29.300272 c 0,0 11.85158,7.281757 24.87765,0"
     id="path264"
     style="stroke:#231f20;stroke-width:3.66059;stroke-dasharray:none;stroke-opacity:1" />
  <path
     fill="none"
     stroke="#000000"
     stroke-linecap="round"
     stroke-linejoin="round"
     stroke-miterlimit="10"
     stroke-width="5.49532"
     d="m 109.95381,43.387609 c 0,0 6.32768,-10.779094 13.03584,0"
     id="path266"
     style="stroke:#231f20;stroke-width:3.66059;stroke-dasharray:none;stroke-opacity:1" />
  <polyline
     fill="none"
     stroke="#000000"
     stroke-linecap="round"
     stroke-linejoin="round"
     stroke-miterlimit="10"
     stroke-width="2"
     points="52.6639,29.9332 53.097,26.5619 49.2641,26.0342"
     id="polyline268"
     transform="matrix(2.8737353,0,0,2.8737353,13.579934,-46.611745)"
     style="stroke:#231f20;stroke-width:1.27381;stroke-dasharray:none;stroke-opacity:1" />
  <path
     fill="none"
     stroke="#000000"
     stroke-linecap="round"
     stroke-linejoin="round"
     stroke-miterlimit="10"
     stroke-width="5.74747"
     d="m 111.15733,39.678192 c 0,0 5.1595,-10.779094 10.62937,0"
     id="path270"
     style="stroke:#231f20;stroke-opacity:1" />
  <rect
     style="fill:#231f20;fill-opacity:1;stroke:#231f20;stroke-width:0;stroke-dasharray:none;stroke-opacity:1;paint-order:markers stroke fill"
     id="rect5812"
     width="13.703204"
     height="6.7250981"
     x="109.91637"
     y="32.634747" />
  <rect
     style="fill:#231f20;fill-opacity:1;stroke:#231f20;stroke-width:0;stroke-dasharray:none;stroke-opacity:1;paint-order:markers stroke fill"
     id="rect5812-3"
     width="3.0673134"
     height="3.2871101"
     x="67.189964"
     y="29.736599" />
  <rect
     style="fill:#231f20;fill-opacity:1;stroke:#231f20;stroke-width:0;stroke-dasharray:none;stroke-opacity:1;paint-order:markers stroke fill"
     id="rect5812-3-6"
     width="3.0673134"
     height="3.2871101"
     x="162.4424"
     y="30.334803" />
  <g
     id="g13698"
     transform="translate(45.835369,-1.3236665)">
    <path
       id="rect10359"
       style="fill:#231f20;stroke:#231f20;stroke-width:0;paint-order:markers stroke fill"
       d="M -6.3101565,212.78906 H 214.06454 c 0.483,0 0.87185,0.38885 0.87185,0.87185 v 10.44062 c 0,0.48301 -0.38885,0.87185 -0.87185,0.87185 H -6.3101565 c -0.4830051,0 -0.8718503,-0.38884 -0.8718503,-0.87185 v -10.44062 c 0,-0.483 0.3888452,-0.87185 0.8718503,-0.87185 z" />
    <rect
       style="fill:#231f20;fill-opacity:1;stroke:#231f20;stroke-width:0;stroke-dasharray:none;stroke-opacity:1;paint-order:markers stroke fill"
       id="rect10359-5"
       width="222.11839"
       height="6.9999995"
       x="-1.5744849"
       y="39.606037"
       transform="rotate(80.002049)"
       ry="2.1264701" />
    <g
       id="g13688">
      <rect
         style="fill:#231f20;fill-opacity:1;stroke:#231f20;stroke-width:0;stroke-dasharray:none;stroke-opacity:1;paint-order:markers stroke fill"
         id="rect11384"
         width="19.999998"
         height="1"
         x="13.873096"
         y="211.78574" />
      <rect
         style="fill:#231f20;fill-opacity:1;stroke:#231f20;stroke-width:0;stroke-dasharray:none;stroke-opacity:1;paint-order:markers stroke fill"
         id="rect11384-3"
         width="19.999998"
         height="1"
         x="37.708305"
         y="211.78574" />
      <rect
         style="fill:#231f20;fill-opacity:1;stroke:#231f20;stroke-width:0;stroke-dasharray:none;stroke-opacity:1;paint-order:markers stroke fill"
         id="rect11384-3-5"
         width="19.999998"
         height="1"
         x="61.54351"
         y="211.78574" />
      <rect
         style="fill:#231f20;fill-opacity:1;stroke:#231f20;stroke-width:0;stroke-dasharray:none;stroke-opacity:1;paint-order:markers stroke fill"
         id="rect11384-3-6"
         width="19.999998"
         height="1"
         x="85.378723"
         y="211.78574" />
      <rect
         style="fill:#231f20;fill-opacity:1;stroke:#231f20;stroke-width:0;stroke-dasharray:none;stroke-opacity:1;paint-order:markers stroke fill"
         id="rect11384-3-2"
         width="19.999998"
         height="1"
         x="109.21393"
         y="211.78574" />
    </g>
  </g>
  <metadata
     id="metadata228">
    <rdf:RDF>
      <cc:Work
         rdf:about="">
        <dc:title>RiceSec Hacker Owl</dc:title>
      </cc:Work>
    </rdf:RDF>
  </metadata>
</svg>
